<svg width="31" height="30" viewBox="0 0 31 30" fill="none" xmlns="http://www.w3.org/2000/svg">
<path d="M15.4942 27C22.0713 27 27.5 21.5687 27.5 15C27.5 8.43133 22.0597 3 15.4826 3C8.91711 3 3.5 8.43133 3.5 15C3.5 21.5687 8.92871 27 15.4942 27ZM15.4826 16.8917C13.209 16.8801 11.4459 14.9768 11.4459 12.4584C11.4227 10.0909 13.2206 8.11799 15.4826 8.11799C17.7446 8.11799 19.5193 10.0909 19.5193 12.4584C19.5193 14.9768 17.7562 16.9149 15.4826 16.8917ZM15.4826 25.0155C12.8842 25.0155 10.1235 23.9362 8.37192 22.0561C9.7059 20.06 12.3507 18.8994 15.4826 18.8994C18.5797 18.8994 21.2477 20.0368 22.5933 22.0561C20.8417 23.9362 18.081 25.0155 15.4826 25.0155Z" fill="white"/>
</svg>
